<?xml version="1.0" encoding="utf-8"?>
<!-- Generator: Adobe Illustrator 21.0.0, SVG Export Plug-In . SVG Version: 6.00 Build 0)  -->
<svg version="1.1" id="Camada_1" xmlns="http://www.w3.org/2000/svg" xmlns:xlink="http://www.w3.org/1999/xlink" x="0px" y="0px"
	 viewBox="250 240 341.9 110.3" style="enable-background:new 250 240 341.9 110.3;" xml:space="preserve">
<style type="text/css">
	.st0{fill:#6F6F6E;}
	.st1{fill:#2E5052;}
	.st2{fill:#3F552B;}
	.st3{fill:#6C8437;}
	.st4{fill:#95AE42;}
	.st5{fill:#4C8686;}
	.st6{fill:#6AB3B4;}
</style>
<g>
	<path class="st0" d="M267.5,283.2c-4.4,0-8.6-1.2-12.1-3.7l1.8-3.1c3,2.2,6.4,3.4,10.3,3.4c5.9,0,9.7-3.2,9.7-9.5v-3.1
		c-2.3,3.1-5.6,5.6-10.5,5.6c-6.4,0-12.5-4.7-12.5-12.5c0-7.8,6.2-12.6,12.5-12.6c5,0,8.2,2.5,10.4,5.4v-4.8h4v22
		C281.1,278.8,275.7,283.2,267.5,283.2z M267.5,251.1c-5,0-9.2,3.5-9.2,9c0,5.5,4.3,9.1,9.2,9.1c5,0,9.8-3.6,9.8-9.1
		C277.3,254.7,272.5,251.1,267.5,251.1z"/>
	<path class="st0" d="M291.9,274.8h-4v-26.6h4v7c2-4.4,5.8-7.6,10.9-7.4v4.3h-0.3c-5.8,0-10.6,4.2-10.6,12.2V274.8z"/>
	<path class="st0" d="M327.7,248.2h3.9v26.6h-3.9v-4.6c-1.8,2.9-4.5,5.2-9.1,5.2c-6.4,0-10.2-4.3-10.2-10.7v-16.5h4v15.6
		c0,4.9,2.7,8,7.4,8c4.5,0,8-3.3,8-8.3V248.2z"/>
	<path class="st0" d="M353.7,275.4c-4.9,0-8.1-2.7-10.2-5.7v13.3h-4v-34.9h4v5.4c2.2-3.2,5.3-5.9,10.2-5.9c6.4,0,12.7,5,12.7,13.9
		C366.4,270.2,360.2,275.4,353.7,275.4z M353,251.2c-4.9,0-9.6,4.1-9.6,10.3c0,6.2,4.7,10.4,9.6,10.4c5.2,0,9.4-3.8,9.4-10.3
		C362.4,255.2,358,251.2,353,251.2z"/>
	<path class="st0" d="M384.9,275.4c-8,0-13.8-6.3-13.8-13.9c0-7.6,5.9-14,13.9-14c8,0,13.9,6.3,13.9,13.9
		C398.9,269.1,392.9,275.4,384.9,275.4z M384.9,251.1c-5.8,0-9.7,4.6-9.7,10.4c0,5.8,4.2,10.4,9.8,10.4c5.8,0,9.8-4.6,9.8-10.3
		C394.8,255.8,390.5,251.1,384.9,251.1z"/>
	<path class="st1" d="M272.2,332.3c-3.6,0-7.1-0.6-10.5-1.8s-6.4-2.9-8.8-5.1l5.1-8.9c2.6,1.7,5,3,7.4,4c2.4,0.9,4.5,1.4,6.5,1.4
		c2.1,0,3.1-0.7,3.1-2c0-0.7-0.4-1.4-1.2-1.9c-0.8-0.5-2.4-1.1-4.7-1.8c-2.9-0.8-5.4-1.7-7.3-2.5c-2-0.8-3.5-1.7-4.8-2.6
		c-1.2-0.9-2.1-2-2.6-3.1c-0.5-1.1-0.8-2.5-0.8-4.1c0-2.1,0.4-4,1.3-5.8c0.8-1.8,2-3.3,3.5-4.6c1.5-1.3,3.3-2.3,5.3-3
		c2.1-0.7,4.3-1.1,6.8-1.1c3,0,5.9,0.4,8.6,1.2s5.5,2.4,8.2,4.8l-5.6,8.9c-2.6-1.7-4.7-2.9-6.4-3.6s-3.3-1.1-4.8-1.1
		c-0.9,0-1.6,0.2-2.2,0.5c-0.6,0.3-0.9,0.9-0.9,1.6c0,0.8,0.4,1.4,1.3,1.9c0.8,0.5,2.5,1.1,4.9,1.7c3,0.8,5.5,1.6,7.5,2.5
		s3.7,1.8,4.9,2.8c1.2,1,2.1,2.2,2.6,3.4c0.5,1.3,0.8,2.7,0.8,4.4c0,2.1-0.4,4-1.2,5.7c-0.8,1.7-1.9,3.1-3.4,4.3
		c-1.5,1.2-3.3,2.1-5.4,2.7S274.9,332.3,272.2,332.3z"/>
	<path class="st1" d="M317.7,332.3c-3.6,0-6.8-0.6-9.6-1.7s-5.2-2.6-7.1-4.6c-1.9-1.9-3.3-4.1-4.3-6.6c-1-2.5-1.5-5.1-1.5-7.9
		c0-3,0.5-5.8,1.4-8.4c1-2.7,2.4-5,4.3-7c1.9-2,4.2-3.6,7-4.7c2.8-1.2,6-1.8,9.7-1.8c3.6,0,6.9,0.6,9.7,1.8s5.2,2.7,7.1,4.7
		c1.9,2,3.3,4.2,4.3,6.8c1,2.6,1.4,5.3,1.4,8.1c0,0.8,0,1.6-0.1,2.4c-0.1,0.8-0.2,1.5-0.3,2.1H311c0.2,2.2,1,3.8,2.4,4.7
		c1.5,1,3,1.4,4.8,1.4c1.6,0,3.1-0.4,4.6-1.1c1.4-0.7,2.4-1.7,2.9-3l12.6,3.6c-1.7,3.3-4.2,6-7.7,8
		C327.1,331.3,322.8,332.3,317.7,332.3z M324.3,306.6c-0.3-2-1-3.5-2.2-4.7c-1.2-1.1-2.7-1.7-4.6-1.7s-3.4,0.6-4.6,1.7
		c-1.2,1.1-1.9,2.7-2.2,4.7H324.3z"/>
	<path class="st1" d="M376.1,303.1c-2.9,0-5.5,0.3-7.8,0.9s-4.1,1.7-5.2,3.1v24.4h-14.8v-41.1h13.6v7.8c1.5-2.8,3.3-4.9,5.4-6.4
		c2.2-1.5,4.5-2.2,7-2.2c1,0,1.6,0,1.9,0.1V303.1z"/>
	<path class="st1" d="M394,331.5l-13.8-41.1h15.2l7.3,29.5l7.4-29.5H424l-13.8,41.1H394z"/>
	<path class="st1" d="M454.1,311c0-2.8,0.5-5.5,1.5-8.1c1-2.6,2.4-4.8,4.3-6.8c1.9-2,4.3-3.5,7.1-4.7s6-1.8,9.7-1.8
		c5,0,9.2,1,12.5,3.1c3.4,2.1,5.9,4.8,7.5,8l-14.5,4.4c-1.4-2-3.3-3-5.7-3c-2,0-3.8,0.8-5.2,2.3c-1.4,1.5-2.1,3.7-2.1,6.5
		s0.7,5,2.1,6.5c1.4,1.5,3.1,2.3,5.2,2.3c2.4,0,4.3-1,5.7-3l14.5,4.4c-1.7,3.3-4.2,6-7.5,8c-3.4,2.1-7.5,3.1-12.5,3.1
		c-3.6,0-6.9-0.6-9.7-1.8s-5.2-2.7-7.1-4.7c-1.9-2-3.3-4.2-4.3-6.8C454.6,316.5,454.1,313.8,454.1,311z"/>
	<path class="st1" d="M524.5,332.3c-3.6,0-6.8-0.6-9.6-1.7s-5.2-2.6-7.1-4.6c-1.9-1.9-3.3-4.1-4.3-6.6c-1-2.5-1.5-5.1-1.5-7.9
		c0-3,0.5-5.8,1.4-8.4c1-2.7,2.4-5,4.3-7c1.9-2,4.2-3.6,7-4.7c2.8-1.2,6-1.8,9.7-1.8c3.6,0,6.9,0.6,9.7,1.8s5.2,2.7,7.1,4.7
		c1.9,2,3.3,4.2,4.3,6.8c1,2.6,1.4,5.3,1.4,8.1c0,0.8,0,1.6-0.1,2.4c-0.1,0.8-0.2,1.5-0.3,2.1h-28.8c0.2,2.2,1,3.8,2.4,4.7
		c1.5,1,3,1.4,4.8,1.4c1.6,0,3.1-0.4,4.6-1.1c1.4-0.7,2.4-1.7,2.9-3l12.6,3.6c-1.7,3.3-4.2,6-7.7,8
		C533.8,331.3,529.5,332.3,524.5,332.3z M531,306.6c-0.3-2-1-3.5-2.2-4.7c-1.2-1.1-2.7-1.7-4.6-1.7s-3.4,0.6-4.6,1.7
		c-1.2,1.1-1.9,2.7-2.2,4.7H531z"/>
	<path class="st1" d="M571.9,332.3c-3.6,0-7.1-0.6-10.5-1.8s-6.4-2.9-8.8-5.1l5.1-8.9c2.6,1.7,5,3,7.4,4c2.4,0.9,4.5,1.4,6.5,1.4
		c2.1,0,3.1-0.7,3.1-2c0-0.7-0.4-1.4-1.2-1.9c-0.8-0.5-2.4-1.1-4.7-1.8c-2.9-0.8-5.4-1.7-7.3-2.5c-2-0.8-3.5-1.7-4.8-2.6
		c-1.2-0.9-2.1-2-2.6-3.1c-0.5-1.1-0.8-2.5-0.8-4.1c0-2.1,0.4-4,1.3-5.8c0.8-1.8,2-3.3,3.5-4.6c1.5-1.3,3.3-2.3,5.3-3
		c2.1-0.7,4.3-1.1,6.8-1.1c3,0,5.9,0.4,8.6,1.2s5.5,2.4,8.2,4.8l-5.6,8.9c-2.6-1.7-4.7-2.9-6.4-3.6s-3.3-1.1-4.8-1.1
		c-0.9,0-1.6,0.2-2.2,0.5c-0.6,0.3-0.9,0.9-0.9,1.6c0,0.8,0.4,1.4,1.3,1.9c0.8,0.5,2.5,1.1,4.9,1.7c3,0.8,5.5,1.6,7.5,2.5
		s3.7,1.8,4.9,2.8c1.2,1,2.1,2.2,2.6,3.4c0.5,1.3,0.8,2.7,0.8,4.4c0,2.1-0.4,4-1.2,5.7c-0.8,1.7-1.9,3.1-3.4,4.3
		c-1.5,1.2-3.3,2.1-5.4,2.7S574.5,332.3,571.9,332.3z"/>
	<path class="st2" d="M272.2,332.3c2.7,0,5-0.3,7.1-0.9c0.6-0.2,1.3-0.4,1.8-0.7l0.8-22.3c-0.3-0.1-0.6-0.3-0.9-0.4
		c-2-0.9-4.5-1.7-7.5-2.5c-2.4-0.6-4.1-1.2-4.9-1.7c-0.8-0.5-1.3-1.1-1.3-1.9c0-0.7,0.3-1.3,0.9-1.6c0.6-0.3,1.3-0.5,2.2-0.5
		c1.5,0,3.1,0.4,4.8,1.1s3.9,1.9,6.4,3.6l0.6-1l0.2-8.5l-26.7,1.8c-0.3,0.5-0.6,1-0.9,1.6c-0.8,1.8-1.3,3.7-1.3,5.8
		c0,1.6,0.3,2.9,0.8,4.1c0.5,1.1,1.4,2.2,2.6,3.1c1.2,0.9,2.8,1.8,4.8,2.6c2,0.8,4.4,1.6,7.3,2.5c2.3,0.7,3.9,1.3,4.7,1.8
		c0.8,0.5,1.2,1.1,1.2,1.9c0,1.3-1,2-3.1,2c-2,0-4.2-0.5-6.5-1.4c-2.4-0.9-4.8-2.3-7.4-4l-5.1,8.9c2.4,2.2,5.3,3.9,8.7,5.1
		S268.6,332.3,272.2,332.3z"/>
	<path class="st3" d="M282.3,303.4l5-7.9c-0.4-0.3-0.8-0.7-1.2-1l-3.6,0.3L282.3,303.4z"/>
	<path class="st3" d="M288.5,314.2c-0.5-1.3-1.4-2.4-2.6-3.4c-1-0.9-2.4-1.6-4-2.4l-0.6,16.8l7.9-6.8
		C289.3,316.8,289,315.4,288.5,314.2z"/>
	<path class="st4" d="M289.3,318.4l-7.9,6.8l-0.1,2.6l6.3-2.5c0.2-0.3,0.4-0.6,0.5-1c0.8-1.7,1.2-3.6,1.2-5.7
		C289.3,318.5,289.3,318.5,289.3,318.4z"/>
	<path class="st3" d="M308,291.4c-2.8,1.2-5.1,2.7-7,4.7c-1.9,2-3.3,4.3-4.3,7c-1,2.7-1.4,5.5-1.4,8.4c0,0.2,0,0.3,0,0.5l21.5-22.3
		C313.4,289.8,310.5,290.4,308,291.4z"/>
	<path class="st4" d="M310.7,306.6c0.3-2,1-3.5,2.2-4.7c1.2-1.1,2.7-1.7,4.6-1.7s3.4,0.6,4.6,1.7c0.9,0.9,1.6,2.1,1.9,3.5l12.5-6.7
		c-0.6-0.9-1.3-1.8-2.1-2.6c-1.9-2-4.3-3.5-7.1-4.7s-6-1.8-9.7-1.8c-0.4,0-0.7,0-1.1,0c-3.7,3.8-13.1,13.5-13.1,13.5l0,0l-8.3,8.8
		c0.1,2.6,0.5,5.1,1.5,7.4c0.1,0.2,0.2,0.5,0.3,0.7l24.7-13.5H310.7z"/>
	<g>
		<path class="st5" d="M326.5,304l-5.3,11.5h18.6c0.1-0.6,0.2-1.3,0.3-2.1c0.1-0.8,0.1-1.6,0.1-2.4c0-2.8-0.5-5.5-1.4-8.1
			c-0.6-1.5-1.3-2.9-2.2-4.3L326.5,304z"/>
		<path class="st5" d="M322.8,320.6c-1.4,0.7-2.8,1.1-4.4,1.1l-4.6,10.4c1.3,0.2,2.6,0.3,3.9,0.3c5.1,0,9.3-1,12.8-3.1
			c3.5-2.1,6-4.8,7.7-8l-12.6-3.6C325.2,318.8,324.2,319.9,322.8,320.6z"/>
	</g>
	<polygon class="st4" points="351.7,290.4 348.2,290.4 348.2,292.4 	"/>
	<path class="st5" d="M351.7,290.4l-3.5,2v25.7l24-28.3c-1.8,0.3-3.4,1-5,2.1c-2.2,1.5-4,3.6-5.4,6.4v-7.8H351.7z"/>
	<polygon class="st6" points="363,314 350.9,315 363,319.2 	"/>
	<polygon class="st6" points="392.3,326.7 410.3,331.2 413.1,322.8 403.9,315.4 403.9,315.4 402.7,319.9 401,313 398.9,310.9 
		387.3,311.6 	"/>
	<path class="st4" d="M460,296.1c-1.4,1.4-2.5,3-3.5,4.8c3.3,1.4,10.9,4.5,13.6,5.6c0.3-0.8,0.8-1.5,1.3-2.1l-10.3-9.5
		C460.7,295.4,460.3,295.7,460,296.1z"/>
	<path class="st3" d="M470.1,306.5l-13.6-5.6c-0.3,0.6-0.6,1.3-0.9,2c-1,2.6-1.5,5.3-1.5,8.1c0,1.1,0.1,2.3,0.3,3.4
		c3.2-0.9,11.4-3.3,15-4.4C469.5,308.6,469.7,307.5,470.1,306.5z"/>
	<path class="st2" d="M482.3,316.7c-1.4,2-3.3,3-5.7,3c-2,0-3.8-0.8-5.2-2.3c-1.4-1.5-2.1-3.7-2.1-6.5c0-0.4,0-0.7,0-1.1l-15,4.4
		c0.2,1.6,0.6,3.2,1.2,4.7c1,2.6,2.4,4.8,4.3,6.8c1.9,2,4.3,3.5,7.1,4.7s6,1.8,9.7,1.8c5,0,9.2-1,12.5-3.1c3.4-2.1,5.9-4.8,7.5-8
		L482.3,316.7z"/>
	<path class="st2" d="M521.3,306.6h-3.9c0.3-2,1-3.5,2.2-4.7c1.2-1.1,2.7-1.7,4.6-1.7c1.5,0,2.8,0.4,3.9,1.2l10.1-7.7
		c-1.3-0.9-2.6-1.6-4.1-2.2c-0.2-0.1-0.4-0.1-0.6-0.2l-28.4,8.3c-0.7,1.1-1.3,2.3-1.7,3.6c-1,2.7-1.4,5.5-1.4,8.4
		c0,2.8,0.5,5.4,1.5,7.9c0.1,0.3,0.2,0.5,0.3,0.7l17.2-13.3L521.3,306.6z"/>
	<g>
		<path class="st5" d="M531,315.5h15.6c0.1-0.6,0.2-1.3,0.3-2.1c0.1-0.8,0.1-1.6,0.1-2.4c0-1.3-0.1-2.7-0.3-3.9l-17.6,4.7L531,315.5
			z"/>
		<path class="st5" d="M538,328.7c3.1-2,5.4-4.5,7-7.6l-12.6-3.6c0,0.1-0.1,0.3-0.2,0.4l0,0.1l0-0.1L538,328.7z"/>
	</g>
	<path class="st5" d="M587.7,313.3c-0.5-0.9-1.2-1.7-2.1-2.5c-1.2-1-2.9-2-4.9-2.8s-4.5-1.7-7.5-2.5c-2.4-0.6-4.1-1.2-4.9-1.7
		c-0.8-0.5-1.3-1.1-1.3-1.9c0-0.7,0.3-1.3,0.9-1.6c0.6-0.3,1.3-0.5,2.2-0.5c1.5,0,3.1,0.4,4.8,1.1s3.9,1.9,6.4,3.6l5.6-8.9
		c-1.4-1.2-2.8-2.2-4.2-3l-29.4,11.9c0,1.4,0.3,2.6,0.8,3.7c0.5,1.1,1.4,2.2,2.6,3.1c1.2,0.9,2.8,1.8,4.8,2.6c2,0.8,4.4,1.6,7.3,2.5
		c2.3,0.7,3.9,1.3,4.7,1.8c0.8,0.5,1.2,1.1,1.2,1.9c0,1.3-1,2-3.1,2c-2,0-4.2-0.5-6.5-1.4c-2.4-0.9-4.8-2.3-7.4-4l-5.1,8.9
		c2.4,2.2,5.3,3.9,8.8,5.1c2.1,0.7,4.2,1.2,6.4,1.5L587.7,313.3z"/>
	<path class="st1" d="M448,285.5c0-0.1,0-0.1,0-0.2c0-0.1,0-0.1,0-0.2l0-0.2l0,0c-0.2-3.3-5.5-5.9-9.4-5.9c-4.1,0-9.4,2.7-9.5,6.1
		l0,0l0,0.1c0,0,0,0,0,0c0,0,0,0,0,0l2,39h0c0,0,0,0.1,0,0.1c0,3.4,3.3,6.2,7.4,6.2s7.4-2.8,7.4-6.2c0-0.1,0-0.1,0-0.2h0L448,285.5z
		"/>
	<circle class="st1" cx="438.5" cy="341.1" r="6.6"/>
	<polygon class="st4" points="432.9,293.6 447.4,296.6 447.7,290.3 431.2,290.4 	"/>
	<polygon class="st3" points="443.1,317.6 446.4,316.3 447.4,296.6 432.9,293.6 	"/>
	<path class="st2" d="M446.4,316.3l-3.3,1.3l2.8,7.7c0.1-0.3,0.1-0.6,0.1-0.8c0-0.1,0-0.1,0-0.2l0-0.2L446.4,316.3z"/>
</g>
</svg>
